<?xml version="1.0" encoding="UTF-8"?>
<!DOCTYPE svg PUBLIC "-//W3C//DTD SVG 1.1//EN" "http://www.w3.org/Graphics/SVG/1.1/DTD/svg11.dtd">
<!-- Creator: CorelDRAW -->
<svg xmlns="http://www.w3.org/2000/svg" xml:space="preserve" width="3889px" height="3889px" style="shape-rendering:geometricPrecision; text-rendering:geometricPrecision; image-rendering:optimizeQuality; fill-rule:evenodd; clip-rule:evenodd"
viewBox="0 0 3889 3889"
 xmlns:xlink="http://www.w3.org/1999/xlink">
 <defs>
  <style type="text/css">
   <![CDATA[
    .fil0 {fill:#A7AEB5}
   ]]>
  </style>
 </defs>
 <g id="Слой_x0020_2">
  <metadata id="CorelCorpID_0Corel-Layer"/>
  <path class="fil0" d="M1944.5 0c-1072.18,0 -1944.5,872.32 -1944.5,1944.5 0,1072.18 872.32,1944.5 1944.5,1944.5 1072.26,0 1944.5,-872.32 1944.5,-1944.5 0,-1072.18 -872.235,-1944.5 -1944.5,-1944.5zm843.152 2327.9c189.124,167.903 228.437,227.844 234.862,238.074 78.372,124.279 -86.9106,139.412 -86.9106,139.412l-348.319 0c0,0 -84.7969,0.929921 -157.251,-47.0909 -118.107,-77.3571 -241.794,-227.337 -328.705,-201.298 -72.9606,21.8126 -72.2846,120.39 -72.2846,204.68 0,30.1819 -25.9547,43.7091 -84.5433,43.7091l-108.892 0c-190.815,0 -397.861,-64.2531 -604.401,-280.093 -292.182,-305.117 -548.433,-919.748 -548.433,-919.748 0,0 -15.1335,-30.9429 1.35276,-49.7961 18.6839,-21.1362 69.4945,-18.4307 69.4945,-18.4307l337.751 -0.0846457c0,0 31.7886,6.00276 54.6154,22.0661 18.8531,13.1886 29.3366,38.3827 29.3366,38.3827 0,0 56.7283,187.348 129.013,306.808 141.188,233.171 206.878,239.089 254.814,213.98 70.002,-36.3539 47.1752,-284.235 47.1752,-284.235 0,0 3.12835,-106.441 -33.3945,-153.869 -28.1531,-36.6917 -82.0071,-56.2213 -105.51,-59.265 -19.0224,-2.45197 12.7661,-35.7618 53.2622,-54.7843 54.1079,-24.0949 127.745,-30.2665 254.73,-29.0831 98.8315,0.930315 127.322,6.84803 165.874,15.7252 116.585,26.885 87.7559,97.8169 87.7559,346.882 0,79.8091 -10.9906,191.998 49.2043,229.197 25.9551,16.0634 114.895,35.6776 273.16,-221.335 75.1591,-121.912 134.931,-324.14 134.931,-324.14 0,0 12.3437,-22.235 31.535,-33.2256 19.6138,-11.2441 19.022,-10.9906 45.9071,-10.9906 26.8846,0 296.494,-2.11378 355.674,-2.11378 59.0957,0 114.556,-0.675984 124.11,33.9866 13.6961,49.7961 -43.6244,220.405 -188.87,405.555 -238.666,303.849 -265.128,275.443 -67.0429,451.124z"/>
 </g>
</svg>
